P3
# PPM1
3 3
245
86 213 93 116 203 163 171 228 66
0 57 166 71 101 127 240 15 80
64 241 185 13 241 245 97 72 170