P3
# PPM2
1 4
249
23 22 145
249 99 243
172 181 50
163 29 242
