P3
# PPM3
2 6
255
255 183 243 120 234 43
69 186 157 44 40 30
129 161 82 205 137 195
10 121 107 217 111 131
13 193 208 177 107 183
213 68 196 169 47 107