P3
# PPM5
2 2
254
188 44 68 220 44 68
203 44 231 220 149 254